Coordinates
version=1
nRows=10
nColumns=28
inDegrees=yes

Units are S.I. units (second, meters, Newtons, ...)
Angles are in degrees.

endheader
time	pelvis_tilt	pelvis_list	pelvis_rotation	pelvis_tx	pelvis_ty	pelvis_tz	hip_flexion_r	hip_adduction_r	hip_rotation_r	knee_angle_r	ankle_angle_r	subtalar_angle_r	mtp_angle_r	hip_flexion_l	hip_adduction_l	hip_rotation_l	knee_angle_l	socket_flexion	socket_adduction	socket_rotation	socket_tx	socket_ty	socket_tz	foot_flex	lumbar_extension	lumbar_bending	lumbar_rotation
      0.62500000	      2.40879793	     -4.69801449	      4.24320094	      0.05312602	      0.98875671	      0.30307009	     24.53983601	      6.91850936	    -15.29930638	     -9.78739833	      6.95530519	     -9.58924096	     17.42673989	    -23.39577720	     -3.25882913	     17.25675759	     -6.34331935	      0.00000000	      0.00000000	      0.00000000	      0.00000000	     -0.01092837	      0.00000000	      7.40686968	    -15.73061783	      4.94415170	      1.15494966
      0.62916667	      2.36403083	     -4.57799273	      4.16955991	      0.05310594	      0.98869620	      0.30324186	     24.67890970	      6.78634714	    -15.37764248	    -10.00064572	      6.94863913	     -9.61381509	     17.32509862	    -23.35186267	     -3.10964652	     17.18690578	     -6.35031041	      0.00000000	      0.00000000	      0.00000000	      0.00000000	     -0.01072997	      0.00000000	      7.47559783	    -15.67492980	      4.77900112	      1.13217901
      0.63333333	      2.38422356	     -4.66328028	      4.28243707	      0.05915516	      0.98780097	      0.30272260	     24.74386442	      6.86631310	    -15.21366600	    -10.57366717	      6.61198534	     -9.80364695	     17.36449590	    -23.57799233	     -3.18201555	     17.25401828	     -6.64308962	      0.00000000	      0.00000000	      0.00000000	      0.00000000	     -0.01072027	      0.00000000	      7.38536007	    -15.68365320	      5.04078055	      1.12355581
      0.63750000	      2.42999990	     -4.73717139	      4.33929390	      0.06528685	      0.98693650	      0.30227516	     24.83372412	      6.92460079	    -15.17174869	    -11.26759424	      6.12887370	    -10.13076237	     17.39710217	    -23.84732118	     -3.21992234	     17.20246698	     -6.92342106	      0.00000000	      0.00000000	      0.00000000	      0.00000000	     -0.01061199	      0.00000000	      7.35179311	    -15.68877413	      5.26956128	      1.08290620
      0.64166667	      2.51860808	     -4.91554640	      4.27406678	      0.07137371	      0.98629937	      0.30220255	     24.57489483	      7.35223513	    -14.12858283	    -11.22618172	      4.03172040	    -13.67872928	     19.19433385	    -24.17780182	     -3.34096440	     16.94548077	     -7.17211673	      0.00000000	      0.00000000	      0.00000000	      0.00000000	     -0.01042113	      0.00000000	      7.29319416	    -15.75528385	      5.59464421	      1.08243370
      0.64583333	      2.55263540	     -4.97581795	      4.27565428	      0.07748361	      0.98551573	      0.30185548	     24.72822983	      7.38569884	    -14.14445866	    -12.04939381	      3.55832464	    -13.83818390	     19.26503091	    -24.39969257	     -3.33740650	     16.83561256	     -7.51804026	      0.00000000	      0.00000000	      0.00000000	      0.00000000	     -0.01025513	      0.00000000	      7.20973134	    -15.76559215	      5.78419723	      1.13067477
      0.65000000	      2.58264160	     -5.05325560	      4.34177335	      0.08355105	      0.98486678	      0.30135724	     24.79591131	      7.43586675	    -14.00947062	    -12.70384069	      3.24538600	    -13.90907726	     19.27714463	    -24.56768484	     -3.36641473	     16.84771061	     -7.92724883	      0.00000000	      0.00000000	      0.00000000	      0.00000000	     -0.01007207	      0.00000000	      7.09641726	    -15.76769866	      6.04961846	      1.14857520
      0.65416667	      2.58346321	     -5.18742166	      4.16626777	      0.08974457	      0.98412142	      0.30134419	     24.88865819	      7.68855186	    -13.58002262	    -13.26881025	      1.58685240	    -16.05488629	     20.83734194	    -24.77570362	     -3.36768605	     16.51528312	     -8.27000053	      0.00000000	      0.00000000	      0.00000000	      0.00000000	     -0.00992265	      0.00000000	      6.98180719	    -15.74136547	      6.27072589	      1.36209847
      0.65833333	      2.64584866	     -5.29339748	      4.13966877	      0.09590289	      0.98353314	      0.30098633	     25.00004278	      7.76035179	    -13.59682476	    -14.10487786	      1.16773945	    -16.15301970	     20.82507397	    -24.98236736	     -3.38688729	     16.38117838	     -8.69596805	      0.00000000	      0.00000000	      0.00000000	      0.00000000	     -0.00976739	      0.00000000	      6.82799784	    -15.77124826	      6.53697271	      1.34980069
      0.66250000	      2.69696426	     -5.40040147	      4.16758597	      0.10197805	      0.98306547	      0.30053645	     25.05944801	      7.83306941	    -13.50771675	    -14.80548494	      0.84334144	    -16.21630595	     20.81531946	    -25.10749581	     -3.41576617	     16.32169290	     -9.22526904	      0.00000000	      0.00000000	      0.00000000	      0.00000000	     -0.00962135	      0.00000000	      6.63353300	    -15.81177009	      6.82063054	      1.37177685
